<mxfile host="app.diagrams.net" agent="Mozilla/5.0 (Windows NT 10.0; Win64; x64) AppleWebKit/537.36 (KHTML, like Gecko) Chrome/136.0.0.0 Safari/537.36" version="26.2.13">
  <diagram name="Página-1" id="5f1a8DZQUx5ZUVvkPyhQ">
    <mxGraphModel dx="1641" dy="891" grid="1" gridSize="10" guides="1" tooltips="1" connect="1" arrows="1" fold="1" page="1" pageScale="1" pageWidth="827" pageHeight="1169" math="0" shadow="0">
      <root>
        <mxCell id="0" />
        <mxCell id="1" parent="0" />
        <mxCell id="LP3E8lM1gLF8b4u96D6R-5" value="&lt;font style=&quot;font-size: 10px;&quot;&gt;Cadastro de usuário personal&lt;/font&gt;" style="ellipse;whiteSpace=wrap;html=1;" vertex="1" parent="1">
          <mxGeometry x="223" y="10" width="90" height="50" as="geometry" />
        </mxCell>
        <mxCell id="LP3E8lM1gLF8b4u96D6R-6" value="&lt;span style=&quot;font-size: 10px;&quot;&gt;Cadastro de usuário aluno&lt;/span&gt;" style="ellipse;whiteSpace=wrap;html=1;" vertex="1" parent="1">
          <mxGeometry x="440" y="70" width="90" height="50" as="geometry" />
        </mxCell>
        <mxCell id="LP3E8lM1gLF8b4u96D6R-7" value="&lt;font style=&quot;font-size: 10px;&quot;&gt;Login de usuário personal&lt;/font&gt;" style="ellipse;whiteSpace=wrap;html=1;" vertex="1" parent="1">
          <mxGeometry x="440" y="10" width="90" height="50" as="geometry" />
        </mxCell>
        <mxCell id="LP3E8lM1gLF8b4u96D6R-8" value="&lt;font style=&quot;font-size: 10px;&quot;&gt;Login de usuário aluno&lt;/font&gt;" style="ellipse;whiteSpace=wrap;html=1;" vertex="1" parent="1">
          <mxGeometry x="223" y="70" width="90" height="50" as="geometry" />
        </mxCell>
        <mxCell id="LP3E8lM1gLF8b4u96D6R-9" value="&lt;font style=&quot;font-size: 10px;&quot;&gt;Ficha de anamnese&lt;/font&gt;" style="ellipse;whiteSpace=wrap;html=1;" vertex="1" parent="1">
          <mxGeometry x="223" y="130" width="90" height="50" as="geometry" />
        </mxCell>
        <mxCell id="LP3E8lM1gLF8b4u96D6R-10" value="&lt;font style=&quot;font-size: 10px;&quot;&gt;Visualização da ficha&lt;/font&gt;" style="ellipse;whiteSpace=wrap;html=1;" vertex="1" parent="1">
          <mxGeometry x="440" y="130" width="90" height="50" as="geometry" />
        </mxCell>
        <mxCell id="LP3E8lM1gLF8b4u96D6R-11" value="&lt;font style=&quot;font-size: 10px;&quot;&gt;Aba KIDS&lt;/font&gt;" style="ellipse;whiteSpace=wrap;html=1;" vertex="1" parent="1">
          <mxGeometry x="340" y="250" width="90" height="50" as="geometry" />
        </mxCell>
        <mxCell id="LP3E8lM1gLF8b4u96D6R-12" value="&lt;font style=&quot;font-size: 10px;&quot;&gt;Aba adulto&lt;/font&gt;" style="ellipse;whiteSpace=wrap;html=1;" vertex="1" parent="1">
          <mxGeometry x="340" y="300" width="90" height="50" as="geometry" />
        </mxCell>
        <mxCell id="LP3E8lM1gLF8b4u96D6R-15" value="Segurança de dados" style="ellipse;whiteSpace=wrap;html=1;" vertex="1" parent="1">
          <mxGeometry x="340" y="585" width="90" height="50" as="geometry" />
        </mxCell>
        <mxCell id="LP3E8lM1gLF8b4u96D6R-16" value="Acessibilidade" style="ellipse;whiteSpace=wrap;html=1;" vertex="1" parent="1">
          <mxGeometry x="340" y="480" width="90" height="50" as="geometry" />
        </mxCell>
        <mxCell id="LP3E8lM1gLF8b4u96D6R-17" value="Disponibilidade" style="ellipse;whiteSpace=wrap;html=1;" vertex="1" parent="1">
          <mxGeometry x="340" y="640" width="90" height="50" as="geometry" />
        </mxCell>
        <mxCell id="LP3E8lM1gLF8b4u96D6R-18" value="Compatibilidade" style="ellipse;whiteSpace=wrap;html=1;" vertex="1" parent="1">
          <mxGeometry x="340" y="700" width="90" height="50" as="geometry" />
        </mxCell>
        <mxCell id="LP3E8lM1gLF8b4u96D6R-19" value="Backup" style="ellipse;whiteSpace=wrap;html=1;" vertex="1" parent="1">
          <mxGeometry x="340" y="760" width="90" height="50" as="geometry" />
        </mxCell>
        <mxCell id="LP3E8lM1gLF8b4u96D6R-20" value="Tempo de resposta" style="ellipse;whiteSpace=wrap;html=1;" vertex="1" parent="1">
          <mxGeometry x="340" y="530" width="90" height="50" as="geometry" />
        </mxCell>
        <mxCell id="LP3E8lM1gLF8b4u96D6R-21" value="Personal" style="shape=umlActor;verticalLabelPosition=bottom;verticalAlign=top;html=1;outlineConnect=0;" vertex="1" parent="1">
          <mxGeometry x="40" y="10" width="30" height="60" as="geometry" />
        </mxCell>
        <mxCell id="LP3E8lM1gLF8b4u96D6R-28" value="" style="endArrow=none;html=1;rounded=0;exitX=1;exitY=0.3333333333333333;exitDx=0;exitDy=0;exitPerimeter=0;entryX=0.022;entryY=0.402;entryDx=0;entryDy=0;entryPerimeter=0;" edge="1" parent="1" source="LP3E8lM1gLF8b4u96D6R-21" target="LP3E8lM1gLF8b4u96D6R-5">
          <mxGeometry width="50" height="50" relative="1" as="geometry">
            <mxPoint x="64" y="250" as="sourcePoint" />
            <mxPoint x="223" y="35" as="targetPoint" />
          </mxGeometry>
        </mxCell>
        <mxCell id="LP3E8lM1gLF8b4u96D6R-29" value="Aluno" style="shape=umlActor;verticalLabelPosition=bottom;verticalAlign=top;html=1;outlineConnect=0;" vertex="1" parent="1">
          <mxGeometry x="797" y="70" width="30" height="60" as="geometry" />
        </mxCell>
        <mxCell id="LP3E8lM1gLF8b4u96D6R-30" value="" style="endArrow=none;html=1;rounded=0;entryX=0.997;entryY=0.405;entryDx=0;entryDy=0;exitX=0;exitY=0.3333333333333333;exitDx=0;exitDy=0;exitPerimeter=0;entryPerimeter=0;" edge="1" parent="1" source="LP3E8lM1gLF8b4u96D6R-29" target="LP3E8lM1gLF8b4u96D6R-6">
          <mxGeometry width="50" height="50" relative="1" as="geometry">
            <mxPoint x="464" y="250" as="sourcePoint" />
            <mxPoint x="514" y="200" as="targetPoint" />
          </mxGeometry>
        </mxCell>
        <mxCell id="LP3E8lM1gLF8b4u96D6R-34" value="&lt;font style=&quot;font-size: 10px;&quot;&gt;Aba inclusão&lt;/font&gt;" style="ellipse;whiteSpace=wrap;html=1;" vertex="1" parent="1">
          <mxGeometry x="340" y="350" width="90" height="50" as="geometry" />
        </mxCell>
        <mxCell id="LP3E8lM1gLF8b4u96D6R-35" value="&lt;font style=&quot;font-size: 10px;&quot;&gt;Feedback&lt;/font&gt;" style="ellipse;whiteSpace=wrap;html=1;" vertex="1" parent="1">
          <mxGeometry x="550" y="430" width="90" height="50" as="geometry" />
        </mxCell>
        <mxCell id="LP3E8lM1gLF8b4u96D6R-36" value="&lt;font style=&quot;font-size: 10px;&quot;&gt;Notificação&lt;/font&gt;" style="ellipse;whiteSpace=wrap;html=1;" vertex="1" parent="1">
          <mxGeometry x="550" y="490" width="90" height="50" as="geometry" />
        </mxCell>
        <mxCell id="LP3E8lM1gLF8b4u96D6R-37" value="&lt;font style=&quot;font-size: 10px;&quot;&gt;Notificação de pagamento&lt;/font&gt;" style="ellipse;whiteSpace=wrap;html=1;" vertex="1" parent="1">
          <mxGeometry x="550" y="545" width="90" height="50" as="geometry" />
        </mxCell>
        <mxCell id="LP3E8lM1gLF8b4u96D6R-38" value="" style="endArrow=none;html=1;rounded=0;exitX=0;exitY=0.5;exitDx=0;exitDy=0;entryX=1;entryY=0.3333333333333333;entryDx=0;entryDy=0;entryPerimeter=0;" edge="1" parent="1" source="LP3E8lM1gLF8b4u96D6R-9" target="LP3E8lM1gLF8b4u96D6R-21">
          <mxGeometry width="50" height="50" relative="1" as="geometry">
            <mxPoint x="14" y="300" as="sourcePoint" />
            <mxPoint x="64" y="250" as="targetPoint" />
          </mxGeometry>
        </mxCell>
        <mxCell id="LP3E8lM1gLF8b4u96D6R-39" value="" style="endArrow=none;html=1;rounded=0;exitX=1;exitY=0.5;exitDx=0;exitDy=0;entryX=0;entryY=0.3333333333333333;entryDx=0;entryDy=0;entryPerimeter=0;" edge="1" parent="1" source="LP3E8lM1gLF8b4u96D6R-10" target="LP3E8lM1gLF8b4u96D6R-29">
          <mxGeometry width="50" height="50" relative="1" as="geometry">
            <mxPoint x="284" y="370" as="sourcePoint" />
            <mxPoint x="464" y="250" as="targetPoint" />
          </mxGeometry>
        </mxCell>
        <mxCell id="LP3E8lM1gLF8b4u96D6R-40" value="" style="endArrow=none;html=1;rounded=0;entryX=0.018;entryY=0.411;entryDx=0;entryDy=0;entryPerimeter=0;exitX=1;exitY=0.3333333333333333;exitDx=0;exitDy=0;exitPerimeter=0;" edge="1" parent="1" source="LP3E8lM1gLF8b4u96D6R-21" target="LP3E8lM1gLF8b4u96D6R-11">
          <mxGeometry width="50" height="50" relative="1" as="geometry">
            <mxPoint x="64" y="250" as="sourcePoint" />
            <mxPoint x="214" y="400" as="targetPoint" />
          </mxGeometry>
        </mxCell>
        <mxCell id="LP3E8lM1gLF8b4u96D6R-42" value="" style="endArrow=none;html=1;rounded=0;exitX=1;exitY=0.3333333333333333;exitDx=0;exitDy=0;exitPerimeter=0;entryX=0;entryY=0.5;entryDx=0;entryDy=0;" edge="1" parent="1" source="LP3E8lM1gLF8b4u96D6R-21" target="LP3E8lM1gLF8b4u96D6R-12">
          <mxGeometry width="50" height="50" relative="1" as="geometry">
            <mxPoint x="64" y="250" as="sourcePoint" />
            <mxPoint x="224" y="450" as="targetPoint" />
          </mxGeometry>
        </mxCell>
        <mxCell id="LP3E8lM1gLF8b4u96D6R-43" value="" style="endArrow=none;html=1;rounded=0;exitX=1;exitY=0.3333333333333333;exitDx=0;exitDy=0;exitPerimeter=0;entryX=0;entryY=0.5;entryDx=0;entryDy=0;" edge="1" parent="1" source="LP3E8lM1gLF8b4u96D6R-21" target="LP3E8lM1gLF8b4u96D6R-34">
          <mxGeometry width="50" height="50" relative="1" as="geometry">
            <mxPoint x="172" y="560" as="sourcePoint" />
            <mxPoint x="222" y="510" as="targetPoint" />
          </mxGeometry>
        </mxCell>
        <mxCell id="LP3E8lM1gLF8b4u96D6R-44" value="" style="endArrow=none;html=1;rounded=0;exitX=1;exitY=0.5;exitDx=0;exitDy=0;entryX=0;entryY=0.3333333333333333;entryDx=0;entryDy=0;entryPerimeter=0;" edge="1" parent="1" source="LP3E8lM1gLF8b4u96D6R-11" target="LP3E8lM1gLF8b4u96D6R-29">
          <mxGeometry width="50" height="50" relative="1" as="geometry">
            <mxPoint x="414" y="300" as="sourcePoint" />
            <mxPoint x="464" y="250" as="targetPoint" />
          </mxGeometry>
        </mxCell>
        <mxCell id="LP3E8lM1gLF8b4u96D6R-45" value="" style="endArrow=none;html=1;rounded=0;entryX=0;entryY=0.3333333333333333;entryDx=0;entryDy=0;entryPerimeter=0;exitX=1;exitY=0.5;exitDx=0;exitDy=0;" edge="1" parent="1" source="LP3E8lM1gLF8b4u96D6R-12" target="LP3E8lM1gLF8b4u96D6R-29">
          <mxGeometry width="50" height="50" relative="1" as="geometry">
            <mxPoint x="312" y="450" as="sourcePoint" />
            <mxPoint x="464" y="250" as="targetPoint" />
          </mxGeometry>
        </mxCell>
        <mxCell id="LP3E8lM1gLF8b4u96D6R-46" value="" style="endArrow=none;html=1;rounded=0;entryX=0;entryY=0.3333333333333333;entryDx=0;entryDy=0;entryPerimeter=0;exitX=1;exitY=0.5;exitDx=0;exitDy=0;" edge="1" parent="1" source="LP3E8lM1gLF8b4u96D6R-34" target="LP3E8lM1gLF8b4u96D6R-29">
          <mxGeometry width="50" height="50" relative="1" as="geometry">
            <mxPoint x="312" y="510" as="sourcePoint" />
            <mxPoint x="464" y="250" as="targetPoint" />
          </mxGeometry>
        </mxCell>
        <mxCell id="LP3E8lM1gLF8b4u96D6R-47" value="&lt;font style=&quot;font-size: 10px;&quot;&gt;Visualização de vídeos&lt;/font&gt;" style="ellipse;whiteSpace=wrap;html=1;" vertex="1" parent="1">
          <mxGeometry x="340" y="400" width="90" height="50" as="geometry" />
        </mxCell>
        <mxCell id="LP3E8lM1gLF8b4u96D6R-48" value="&lt;font style=&quot;font-size: 10px;&quot;&gt;Compartilhamento&lt;/font&gt;" style="ellipse;whiteSpace=wrap;html=1;" vertex="1" parent="1">
          <mxGeometry x="730" y="430" width="90" height="50" as="geometry" />
        </mxCell>
        <mxCell id="LP3E8lM1gLF8b4u96D6R-49" value="" style="endArrow=none;html=1;rounded=0;entryX=0;entryY=0.3333333333333333;entryDx=0;entryDy=0;entryPerimeter=0;exitX=0.999;exitY=0.419;exitDx=0;exitDy=0;exitPerimeter=0;" edge="1" parent="1" source="LP3E8lM1gLF8b4u96D6R-48" target="LP3E8lM1gLF8b4u96D6R-29">
          <mxGeometry width="50" height="50" relative="1" as="geometry">
            <mxPoint x="314" y="810" as="sourcePoint" />
            <mxPoint x="464" y="250" as="targetPoint" />
          </mxGeometry>
        </mxCell>
        <mxCell id="LP3E8lM1gLF8b4u96D6R-50" value="" style="endArrow=none;html=1;rounded=0;exitX=1;exitY=0.3333333333333333;exitDx=0;exitDy=0;exitPerimeter=0;entryX=0;entryY=0.5;entryDx=0;entryDy=0;" edge="1" parent="1" source="LP3E8lM1gLF8b4u96D6R-21" target="LP3E8lM1gLF8b4u96D6R-47">
          <mxGeometry width="50" height="50" relative="1" as="geometry">
            <mxPoint x="64" y="250" as="sourcePoint" />
            <mxPoint x="224" y="750" as="targetPoint" />
          </mxGeometry>
        </mxCell>
        <mxCell id="LP3E8lM1gLF8b4u96D6R-51" value="" style="endArrow=none;html=1;rounded=0;entryX=0;entryY=0.3333333333333333;entryDx=0;entryDy=0;entryPerimeter=0;exitX=1;exitY=0.5;exitDx=0;exitDy=0;" edge="1" parent="1" source="LP3E8lM1gLF8b4u96D6R-37" target="LP3E8lM1gLF8b4u96D6R-29">
          <mxGeometry width="50" height="50" relative="1" as="geometry">
            <mxPoint x="312" y="700" as="sourcePoint" />
            <mxPoint x="464" y="250" as="targetPoint" />
          </mxGeometry>
        </mxCell>
        <mxCell id="LP3E8lM1gLF8b4u96D6R-52" value="" style="endArrow=none;html=1;rounded=0;entryX=0;entryY=0.3333333333333333;entryDx=0;entryDy=0;entryPerimeter=0;exitX=1.001;exitY=0.455;exitDx=0;exitDy=0;exitPerimeter=0;" edge="1" parent="1" source="LP3E8lM1gLF8b4u96D6R-36" target="LP3E8lM1gLF8b4u96D6R-29">
          <mxGeometry width="50" height="50" relative="1" as="geometry">
            <mxPoint x="312" y="635" as="sourcePoint" />
            <mxPoint x="362" y="585" as="targetPoint" />
          </mxGeometry>
        </mxCell>
        <mxCell id="LP3E8lM1gLF8b4u96D6R-53" value="" style="endArrow=none;html=1;rounded=0;entryX=0;entryY=0.3333333333333333;entryDx=0;entryDy=0;entryPerimeter=0;exitX=1;exitY=0.5;exitDx=0;exitDy=0;" edge="1" parent="1" source="LP3E8lM1gLF8b4u96D6R-35" target="LP3E8lM1gLF8b4u96D6R-29">
          <mxGeometry width="50" height="50" relative="1" as="geometry">
            <mxPoint x="312" y="570" as="sourcePoint" />
            <mxPoint x="460" y="250" as="targetPoint" />
          </mxGeometry>
        </mxCell>
        <mxCell id="LP3E8lM1gLF8b4u96D6R-62" value="&amp;lt;&amp;lt;include&amp;gt;&amp;gt;" style="endArrow=open;endSize=12;dashed=1;html=1;rounded=0;entryX=0;entryY=0.5;entryDx=0;entryDy=0;exitX=1;exitY=0.5;exitDx=0;exitDy=0;" edge="1" parent="1" source="LP3E8lM1gLF8b4u96D6R-5" target="LP3E8lM1gLF8b4u96D6R-7">
          <mxGeometry width="160" relative="1" as="geometry">
            <mxPoint x="313" y="34.8" as="sourcePoint" />
            <mxPoint x="473" y="34.8" as="targetPoint" />
          </mxGeometry>
        </mxCell>
        <mxCell id="LP3E8lM1gLF8b4u96D6R-63" value="&amp;lt;&amp;lt;include&amp;gt;&amp;gt;" style="endArrow=open;endSize=12;dashed=1;html=1;rounded=0;entryX=1;entryY=0.5;entryDx=0;entryDy=0;exitX=0;exitY=0.5;exitDx=0;exitDy=0;" edge="1" parent="1" source="LP3E8lM1gLF8b4u96D6R-6" target="LP3E8lM1gLF8b4u96D6R-8">
          <mxGeometry width="160" relative="1" as="geometry">
            <mxPoint x="313" y="80" as="sourcePoint" />
            <mxPoint x="440" y="80" as="targetPoint" />
          </mxGeometry>
        </mxCell>
        <mxCell id="LP3E8lM1gLF8b4u96D6R-64" value="&amp;lt;&amp;lt;include&amp;gt;&amp;gt;" style="endArrow=open;endSize=12;dashed=1;html=1;rounded=0;entryX=0;entryY=0.5;entryDx=0;entryDy=0;exitX=1;exitY=0.5;exitDx=0;exitDy=0;" edge="1" parent="1" source="LP3E8lM1gLF8b4u96D6R-9" target="LP3E8lM1gLF8b4u96D6R-10">
          <mxGeometry width="160" relative="1" as="geometry">
            <mxPoint x="313" y="154.66" as="sourcePoint" />
            <mxPoint x="440" y="154.66" as="targetPoint" />
          </mxGeometry>
        </mxCell>
        <mxCell id="LP3E8lM1gLF8b4u96D6R-65" value="" style="endArrow=none;html=1;rounded=0;entryX=0;entryY=0.3333333333333333;entryDx=0;entryDy=0;entryPerimeter=0;exitX=1;exitY=0.5;exitDx=0;exitDy=0;" edge="1" parent="1" source="LP3E8lM1gLF8b4u96D6R-47" target="LP3E8lM1gLF8b4u96D6R-29">
          <mxGeometry width="50" height="50" relative="1" as="geometry">
            <mxPoint x="440" y="405" as="sourcePoint" />
            <mxPoint x="640" y="100" as="targetPoint" />
          </mxGeometry>
        </mxCell>
        <mxCell id="LP3E8lM1gLF8b4u96D6R-67" value="&amp;lt;&amp;lt;include&amp;gt;&amp;gt;" style="endArrow=open;endSize=12;dashed=1;html=1;rounded=0;entryX=1;entryY=0.5;entryDx=0;entryDy=0;exitX=0;exitY=0.5;exitDx=0;exitDy=0;" edge="1" parent="1" source="LP3E8lM1gLF8b4u96D6R-35" target="LP3E8lM1gLF8b4u96D6R-47">
          <mxGeometry width="160" relative="1" as="geometry">
            <mxPoint x="540" y="455" as="sourcePoint" />
            <mxPoint x="440" y="454.71000000000004" as="targetPoint" />
          </mxGeometry>
        </mxCell>
        <mxCell id="LP3E8lM1gLF8b4u96D6R-70" value="&amp;lt;&amp;lt;include&amp;gt;&amp;gt;" style="endArrow=open;endSize=12;dashed=1;html=1;rounded=0;entryX=0.94;entryY=0.779;entryDx=0;entryDy=0;exitX=0;exitY=0.5;exitDx=0;exitDy=0;entryPerimeter=0;" edge="1" parent="1" source="LP3E8lM1gLF8b4u96D6R-36" target="LP3E8lM1gLF8b4u96D6R-47">
          <mxGeometry width="160" relative="1" as="geometry">
            <mxPoint x="530" y="465" as="sourcePoint" />
            <mxPoint x="440" y="465" as="targetPoint" />
          </mxGeometry>
        </mxCell>
        <mxCell id="LP3E8lM1gLF8b4u96D6R-71" value="Extends" style="endArrow=open;endSize=12;dashed=1;html=1;rounded=0;entryX=1;entryY=0.5;entryDx=0;entryDy=0;exitX=0;exitY=0.5;exitDx=0;exitDy=0;" edge="1" parent="1" source="LP3E8lM1gLF8b4u96D6R-48" target="LP3E8lM1gLF8b4u96D6R-35">
          <mxGeometry width="160" relative="1" as="geometry">
            <mxPoint x="730" y="460.00000000000006" as="sourcePoint" />
            <mxPoint x="640" y="460.00000000000006" as="targetPoint" />
          </mxGeometry>
        </mxCell>
        <mxCell id="LP3E8lM1gLF8b4u96D6R-72" value="Sistema&lt;div&gt;&lt;br&gt;&lt;/div&gt;" style="shape=umlActor;verticalLabelPosition=bottom;verticalAlign=top;html=1;outlineConnect=0;" vertex="1" parent="1">
          <mxGeometry x="193" y="645" width="30" height="60" as="geometry" />
        </mxCell>
        <mxCell id="LP3E8lM1gLF8b4u96D6R-73" value="" style="endArrow=none;html=1;rounded=0;exitX=1;exitY=0.3333333333333333;exitDx=0;exitDy=0;exitPerimeter=0;entryX=0;entryY=0.7;entryDx=0;entryDy=0;entryPerimeter=0;" edge="1" parent="1" source="LP3E8lM1gLF8b4u96D6R-72" target="LP3E8lM1gLF8b4u96D6R-15">
          <mxGeometry width="50" height="50" relative="1" as="geometry">
            <mxPoint x="240" y="665" as="sourcePoint" />
            <mxPoint x="290" y="615" as="targetPoint" />
          </mxGeometry>
        </mxCell>
        <mxCell id="LP3E8lM1gLF8b4u96D6R-74" value="" style="endArrow=none;html=1;rounded=0;exitX=1;exitY=0.3333333333333333;exitDx=0;exitDy=0;exitPerimeter=0;entryX=0;entryY=0.5;entryDx=0;entryDy=0;" edge="1" parent="1" source="LP3E8lM1gLF8b4u96D6R-72" target="LP3E8lM1gLF8b4u96D6R-17">
          <mxGeometry width="50" height="50" relative="1" as="geometry">
            <mxPoint x="240" y="685" as="sourcePoint" />
            <mxPoint x="350" y="565" as="targetPoint" />
          </mxGeometry>
        </mxCell>
        <mxCell id="LP3E8lM1gLF8b4u96D6R-75" value="" style="endArrow=none;html=1;rounded=0;exitX=1;exitY=0.3333333333333333;exitDx=0;exitDy=0;exitPerimeter=0;entryX=0;entryY=0.5;entryDx=0;entryDy=0;" edge="1" parent="1" source="LP3E8lM1gLF8b4u96D6R-72" target="LP3E8lM1gLF8b4u96D6R-18">
          <mxGeometry width="50" height="50" relative="1" as="geometry">
            <mxPoint x="240" y="685" as="sourcePoint" />
            <mxPoint x="350" y="675" as="targetPoint" />
          </mxGeometry>
        </mxCell>
        <mxCell id="LP3E8lM1gLF8b4u96D6R-76" value="" style="endArrow=none;html=1;rounded=0;exitX=1;exitY=0.3333333333333333;exitDx=0;exitDy=0;exitPerimeter=0;entryX=-0.016;entryY=0.42;entryDx=0;entryDy=0;entryPerimeter=0;" edge="1" parent="1" source="LP3E8lM1gLF8b4u96D6R-72" target="LP3E8lM1gLF8b4u96D6R-19">
          <mxGeometry width="50" height="50" relative="1" as="geometry">
            <mxPoint x="240" y="685" as="sourcePoint" />
            <mxPoint x="350" y="675" as="targetPoint" />
          </mxGeometry>
        </mxCell>
        <mxCell id="LP3E8lM1gLF8b4u96D6R-77" value="" style="endArrow=none;html=1;rounded=0;entryX=0;entryY=0.3333333333333333;entryDx=0;entryDy=0;entryPerimeter=0;exitX=1;exitY=0.4;exitDx=0;exitDy=0;exitPerimeter=0;" edge="1" parent="1" source="LP3E8lM1gLF8b4u96D6R-16" target="LP3E8lM1gLF8b4u96D6R-29">
          <mxGeometry width="50" height="50" relative="1" as="geometry">
            <mxPoint x="440" y="465" as="sourcePoint" />
            <mxPoint x="807" y="100" as="targetPoint" />
          </mxGeometry>
        </mxCell>
        <mxCell id="LP3E8lM1gLF8b4u96D6R-78" value="" style="endArrow=none;html=1;rounded=0;entryX=0;entryY=0.3333333333333333;entryDx=0;entryDy=0;entryPerimeter=0;exitX=1;exitY=0.4;exitDx=0;exitDy=0;exitPerimeter=0;" edge="1" parent="1" source="LP3E8lM1gLF8b4u96D6R-20" target="LP3E8lM1gLF8b4u96D6R-29">
          <mxGeometry width="50" height="50" relative="1" as="geometry">
            <mxPoint x="440" y="525" as="sourcePoint" />
            <mxPoint x="807" y="100" as="targetPoint" />
          </mxGeometry>
        </mxCell>
        <mxCell id="LP3E8lM1gLF8b4u96D6R-79" value="" style="endArrow=none;html=1;rounded=0;exitX=1;exitY=0.3333333333333333;exitDx=0;exitDy=0;exitPerimeter=0;entryX=0;entryY=0.5;entryDx=0;entryDy=0;" edge="1" parent="1" source="LP3E8lM1gLF8b4u96D6R-21" target="LP3E8lM1gLF8b4u96D6R-20">
          <mxGeometry width="50" height="50" relative="1" as="geometry">
            <mxPoint x="80" y="40" as="sourcePoint" />
            <mxPoint x="350" y="465" as="targetPoint" />
          </mxGeometry>
        </mxCell>
        <mxCell id="LP3E8lM1gLF8b4u96D6R-80" value="" style="endArrow=none;html=1;rounded=0;exitX=1;exitY=0.3333333333333333;exitDx=0;exitDy=0;exitPerimeter=0;entryX=0;entryY=0.5;entryDx=0;entryDy=0;" edge="1" parent="1" source="LP3E8lM1gLF8b4u96D6R-21" target="LP3E8lM1gLF8b4u96D6R-16">
          <mxGeometry width="50" height="50" relative="1" as="geometry">
            <mxPoint x="60" y="90" as="sourcePoint" />
            <mxPoint x="330" y="515" as="targetPoint" />
          </mxGeometry>
        </mxCell>
      </root>
    </mxGraphModel>
  </diagram>
</mxfile>
